<svg id="Layer_1" data-name="Layer 1" xmlns="http://www.w3.org/2000/svg" viewBox="0 0 100 100"><defs><style type="text/css">.cls-1{fill:none;stroke:#ffffff;stroke-miterlimit:10;stroke-width:1.6px;}.cls-2{fill:#ffffff;}</style></defs><title>OBD-2</title><path class="cls-1" d="M7,34.29S3.17,62.14,3.17,62.72,1.81,72.34,13,72.34H87s9,.42,9-9.62c-.63-11.32-3.88-28.43-3.88-28.43s-.54-5.85-8.64-5.85H14.19C7,28.44,7,34.29,7,34.29Z"/><rect class="cls-2" x="18.36" y="50.32" width="62.26" height="2.48"/><path class="cls-2" d="M39.64,29.82H59.35a3.69,3.69,0,0,1,2.41,1.44,7.17,7.17,0,0,0,.8.73H83.65a3.14,3.14,0,0,1,2.59,1.72.14.14,0,0,1,0,.06l7.5,26.56v0a8.41,8.41,0,0,1-1.61,7c-1.27,1.62-3.78,3.55-8.51,3.55H15.34c-4.75,0-7.25-1.94-8.5-3.56a8.37,8.37,0,0,1-1.56-6.95v0l7.44-26.56a.14.14,0,0,0,0-.06A3.15,3.15,0,0,1,15.34,32H36.4a9.32,9.32,0,0,0,.79-.71A3.79,3.79,0,0,1,39.64,29.82ZM59.22,32.3H39.76a6.68,6.68,0,0,0-.83.75,3.75,3.75,0,0,1-2.39,1.42H15.4a1.67,1.67,0,0,0-.35.18L7.67,61a6,6,0,0,0,1.13,4.8c1.31,1.7,3.58,2.61,6.54,2.61H83.65c3,0,5.22-.9,6.55-2.61A6,6,0,0,0,91.37,61L83.94,34.65a1.51,1.51,0,0,0-.36-.18H62.44A3.7,3.7,0,0,1,60,33,7.87,7.87,0,0,0,59.22,32.3Z"/><rect class="cls-2" x="42.94" y="59.09" width="4.9" height="2.48"/><rect class="cls-2" x="18.33" y="59.09" width="4.9" height="2.48"/><rect class="cls-2" x="34.74" y="59.09" width="4.9" height="2.48"/><rect class="cls-2" x="75.75" y="59.09" width="4.9" height="2.48"/><rect class="cls-2" x="67.55" y="59.09" width="4.9" height="2.48"/><rect class="cls-2" x="59.35" y="59.09" width="4.9" height="2.48"/><rect class="cls-2" x="51.14" y="59.09" width="4.9" height="2.48"/><rect class="cls-2" x="26.54" y="59.09" width="4.9" height="2.48"/><rect class="cls-2" x="42.94" y="41.55" width="4.9" height="2.48"/><rect class="cls-2" x="18.33" y="41.55" width="4.9" height="2.48"/><rect class="cls-2" x="34.74" y="41.55" width="4.9" height="2.48"/><rect class="cls-2" x="75.75" y="41.55" width="4.9" height="2.48"/><rect class="cls-2" x="67.55" y="41.55" width="4.9" height="2.48"/><rect class="cls-2" x="59.35" y="41.55" width="4.9" height="2.48"/><rect class="cls-2" x="51.14" y="41.55" width="4.9" height="2.48"/><rect class="cls-2" x="26.54" y="41.55" width="4.9" height="2.48"/></svg>